<?xml version="1.0" standalone="no"?>
<!DOCTYPE svg PUBLIC "-//W3C//DTD SVG 20010904//EN"
 "http://www.w3.org/TR/2001/REC-SVG-20010904/DTD/svg10.dtd">
<svg version="1.0" xmlns="http://www.w3.org/2000/svg"
 width="1024.000000pt" height="1024.000000pt" viewBox="0 0 1024.000000 1024.000000"
 preserveAspectRatio="xMidYMid meet">

<g transform="translate(0.000000,1024.000000) scale(0.100000,-0.100000)"
fill="#000000" stroke="none">
<path d="M4795 9800 c-1455 -106 -2763 -869 -3575 -2085 -114 -172 -281 -463
-279 -489 0 -13 1529 -1200 1543 -1198 5 0 29 52 53 114 125 320 319 635 543
881 464 507 1040 813 1700 903 152 21 508 24 655 5 549 -69 1018 -275 1412
-621 l68 -59 668 667 c367 367 667 670 667 673 0 3 -44 44 -97 90 -413 359
-842 622 -1323 812 -379 150 -777 246 -1210 292 -172 19 -655 27 -825 15z"/>
<path d="M5120 5065 l0 -905 1265 0 c799 0 1265 -4 1265 -10 0 -28 -73 -288
-103 -365 -45 -118 -136 -299 -201 -400 -138 -216 -351 -441 -560 -589 -37
-27 -66 -52 -64 -56 2 -5 191 -154 420 -332 229 -177 533 -413 674 -523 142
-110 292 -226 333 -258 l75 -57 114 112 c683 677 1114 1600 1241 2653 62 518
54 1018 -26 1528 l-17 107 -2208 0 -2208 0 0 -905z"/>
</g>
</svg>
